<svg width="25" height="25" viewBox="0 0 25 25" fill="none" xmlns="http://www.w3.org/2000/svg">
<g id="game.fiil">
<g id="Vector">
<path d="M23.397 12.002C22.403 7.50699 20.907 5.10799 18.687 4.45299C18.2204 4.31611 17.7363 4.24773 17.25 4.24999C16.608 4.24999 16.048 4.40699 15.456 4.57299C14.743 4.77299 13.932 4.99999 12.75 4.99999C11.569 4.99999 10.758 4.77299 10.043 4.57299C9.45003 4.40699 8.89003 4.24999 8.25003 4.24999C7.74735 4.24844 7.2469 4.31676 6.76303 4.45299C4.55503 5.10499 3.06003 7.50299 2.05103 11.999C0.966029 16.838 1.50103 19.893 3.54803 20.602C3.82903 20.7 4.12403 20.752 4.42203 20.752C5.82503 20.752 6.95003 19.584 7.71903 18.627C8.58703 17.544 9.60403 16.995 12.75 16.995C15.56 16.995 16.723 17.376 17.728 18.627C18.359 19.414 18.956 19.964 19.551 20.31C20.343 20.77 21.134 20.873 21.903 20.609C23.113 20.196 23.807 19.104 23.965 17.363C24.085 16.028 23.9 14.275 23.397 12.003V12.002ZM10.5 11.75H9.00003V13.25C9.00003 13.4489 8.92101 13.6397 8.78036 13.7803C8.63971 13.921 8.44894 14 8.25003 14C8.05112 14 7.86035 13.921 7.7197 13.7803C7.57905 13.6397 7.50003 13.4489 7.50003 13.25V11.75H6.00003C5.80112 11.75 5.61035 11.671 5.4697 11.5303C5.32905 11.3897 5.25003 11.1989 5.25003 11C5.25003 10.8011 5.32905 10.6103 5.4697 10.4697C5.61035 10.329 5.80112 10.25 6.00003 10.25H7.50003V8.74999C7.50003 8.55108 7.57905 8.36032 7.7197 8.21966C7.86035 8.07901 8.05112 7.99999 8.25003 7.99999C8.44894 7.99999 8.63971 8.07901 8.78036 8.21966C8.92101 8.36032 9.00003 8.55108 9.00003 8.74999V10.25H10.5C10.6989 10.25 10.8897 10.329 11.0304 10.4697C11.171 10.6103 11.25 10.8011 11.25 11C11.25 11.1989 11.171 11.3897 11.0304 11.5303C10.8897 11.671 10.6989 11.75 10.5 11.75ZM14.438 11.938C14.3148 11.938 14.1929 11.9137 14.0791 11.8666C13.9653 11.8195 13.8619 11.7504 13.7748 11.6633C13.6877 11.5762 13.6186 11.4728 13.5714 11.359C13.5243 11.2451 13.5 11.1232 13.5 11C13.5 10.8768 13.5243 10.7548 13.5714 10.641C13.6186 10.5272 13.6877 10.4238 13.7748 10.3367C13.8619 10.2496 13.9653 10.1805 14.0791 10.1334C14.1929 10.0863 14.3148 10.062 14.438 10.062C14.6868 10.062 14.9254 10.1608 15.1013 10.3367C15.2772 10.5126 15.376 10.7512 15.376 11C15.376 11.2488 15.2772 11.4874 15.1013 11.6633C14.9254 11.8392 14.6868 11.938 14.438 11.938ZM16.5 14C16.2514 14 16.0129 13.9012 15.8371 13.7254C15.6613 13.5496 15.5625 13.3111 15.5625 13.0625C15.5625 12.8139 15.6613 12.5754 15.8371 12.3996C16.0129 12.2238 16.2514 12.125 16.5 12.125C16.7487 12.125 16.9871 12.2238 17.1629 12.3996C17.3388 12.5754 17.4375 12.8139 17.4375 13.0625C17.4375 13.3111 17.3388 13.5496 17.1629 13.7254C16.9871 13.9012 16.7487 14 16.5 14ZM16.5 9.87499C16.2514 9.87499 16.0129 9.77622 15.8371 9.60041C15.6613 9.42459 15.5625 9.18613 15.5625 8.93749C15.5625 8.68885 15.6613 8.4504 15.8371 8.27458C16.0129 8.09877 16.2514 7.99999 16.5 7.99999C16.7487 7.99999 16.9871 8.09877 17.1629 8.27458C17.3388 8.4504 17.4375 8.68885 17.4375 8.93749C17.4375 9.18613 17.3388 9.42459 17.1629 9.60041C16.9871 9.77622 16.7487 9.87499 16.5 9.87499ZM18.563 11.938C18.4398 11.938 18.3179 11.9137 18.2041 11.8666C18.0903 11.8195 17.9869 11.7504 17.8998 11.6633C17.8127 11.5762 17.7436 11.4728 17.6964 11.359C17.6493 11.2451 17.625 11.1232 17.625 11C17.625 10.8768 17.6493 10.7548 17.6964 10.641C17.7436 10.5272 17.8127 10.4238 17.8998 10.3367C17.9869 10.2496 18.0903 10.1805 18.2041 10.1334C18.3179 10.0863 18.4398 10.062 18.563 10.062C18.8118 10.062 19.0504 10.1608 19.2263 10.3367C19.4022 10.5126 19.501 10.7512 19.501 11C19.501 11.2488 19.4022 11.4874 19.2263 11.6633C19.0504 11.8392 18.8118 11.938 18.563 11.938Z" fill="#F9EBFE"/>
<path d="M23.397 12.002C22.403 7.50699 20.907 5.10799 18.687 4.45299C18.2204 4.31611 17.7363 4.24773 17.25 4.24999C16.608 4.24999 16.048 4.40699 15.456 4.57299C14.743 4.77299 13.932 4.99999 12.75 4.99999C11.569 4.99999 10.758 4.77299 10.043 4.57299C9.45003 4.40699 8.89003 4.24999 8.25003 4.24999C7.74735 4.24844 7.2469 4.31676 6.76303 4.45299C4.55503 5.10499 3.06003 7.50299 2.05103 11.999C0.966029 16.838 1.50103 19.893 3.54803 20.602C3.82903 20.7 4.12403 20.752 4.42203 20.752C5.82503 20.752 6.95003 19.584 7.71903 18.627C8.58703 17.544 9.60403 16.995 12.75 16.995C15.56 16.995 16.723 17.376 17.728 18.627C18.359 19.414 18.956 19.964 19.551 20.31C20.343 20.77 21.134 20.873 21.903 20.609C23.113 20.196 23.807 19.104 23.965 17.363C24.085 16.028 23.9 14.275 23.397 12.003V12.002ZM10.5 11.75H9.00003V13.25C9.00003 13.4489 8.92101 13.6397 8.78036 13.7803C8.63971 13.921 8.44894 14 8.25003 14C8.05112 14 7.86035 13.921 7.7197 13.7803C7.57905 13.6397 7.50003 13.4489 7.50003 13.25V11.75H6.00003C5.80112 11.75 5.61035 11.671 5.4697 11.5303C5.32905 11.3897 5.25003 11.1989 5.25003 11C5.25003 10.8011 5.32905 10.6103 5.4697 10.4697C5.61035 10.329 5.80112 10.25 6.00003 10.25H7.50003V8.74999C7.50003 8.55108 7.57905 8.36032 7.7197 8.21966C7.86035 8.07901 8.05112 7.99999 8.25003 7.99999C8.44894 7.99999 8.63971 8.07901 8.78036 8.21966C8.92101 8.36032 9.00003 8.55108 9.00003 8.74999V10.25H10.5C10.6989 10.25 10.8897 10.329 11.0304 10.4697C11.171 10.6103 11.25 10.8011 11.25 11C11.25 11.1989 11.171 11.3897 11.0304 11.5303C10.8897 11.671 10.6989 11.75 10.5 11.75ZM14.438 11.938C14.3148 11.938 14.1929 11.9137 14.0791 11.8666C13.9653 11.8195 13.8619 11.7504 13.7748 11.6633C13.6877 11.5762 13.6186 11.4728 13.5714 11.359C13.5243 11.2451 13.5 11.1232 13.5 11C13.5 10.8768 13.5243 10.7548 13.5714 10.641C13.6186 10.5272 13.6877 10.4238 13.7748 10.3367C13.8619 10.2496 13.9653 10.1805 14.0791 10.1334C14.1929 10.0863 14.3148 10.062 14.438 10.062C14.6868 10.062 14.9254 10.1608 15.1013 10.3367C15.2772 10.5126 15.376 10.7512 15.376 11C15.376 11.2488 15.2772 11.4874 15.1013 11.6633C14.9254 11.8392 14.6868 11.938 14.438 11.938ZM16.5 14C16.2514 14 16.0129 13.9012 15.8371 13.7254C15.6613 13.5496 15.5625 13.3111 15.5625 13.0625C15.5625 12.8139 15.6613 12.5754 15.8371 12.3996C16.0129 12.2238 16.2514 12.125 16.5 12.125C16.7487 12.125 16.9871 12.2238 17.1629 12.3996C17.3388 12.5754 17.4375 12.8139 17.4375 13.0625C17.4375 13.3111 17.3388 13.5496 17.1629 13.7254C16.9871 13.9012 16.7487 14 16.5 14ZM16.5 9.87499C16.2514 9.87499 16.0129 9.77622 15.8371 9.60041C15.6613 9.42459 15.5625 9.18613 15.5625 8.93749C15.5625 8.68885 15.6613 8.4504 15.8371 8.27458C16.0129 8.09877 16.2514 7.99999 16.5 7.99999C16.7487 7.99999 16.9871 8.09877 17.1629 8.27458C17.3388 8.4504 17.4375 8.68885 17.4375 8.93749C17.4375 9.18613 17.3388 9.42459 17.1629 9.60041C16.9871 9.77622 16.7487 9.87499 16.5 9.87499ZM18.563 11.938C18.4398 11.938 18.3179 11.9137 18.2041 11.8666C18.0903 11.8195 17.9869 11.7504 17.8998 11.6633C17.8127 11.5762 17.7436 11.4728 17.6964 11.359C17.6493 11.2451 17.625 11.1232 17.625 11C17.625 10.8768 17.6493 10.7548 17.6964 10.641C17.7436 10.5272 17.8127 10.4238 17.8998 10.3367C17.9869 10.2496 18.0903 10.1805 18.2041 10.1334C18.3179 10.0863 18.4398 10.062 18.563 10.062C18.8118 10.062 19.0504 10.1608 19.2263 10.3367C19.4022 10.5126 19.501 10.7512 19.501 11C19.501 11.2488 19.4022 11.4874 19.2263 11.6633C19.0504 11.8392 18.8118 11.938 18.563 11.938Z" fill="white"/>
</g>
</g>
</svg>
