<svg width="25" height="25" viewBox="0 0 25 25" fill="none" xmlns="http://www.w3.org/2000/svg">
<g id="person">
<g id="Vector">
<path d="M16.342 3.527C15.43 2.542 14.156 2 12.75 2C11.336 2 10.058 2.54 9.14999 3.518C8.23199 4.508 7.78499 5.852 7.88999 7.304C8.09799 10.17 10.278 12.5 12.75 12.5C15.222 12.5 17.398 10.17 17.61 7.305C17.716 5.866 17.266 4.525 16.342 3.527Z" fill="#0F0114"/>
<path d="M16.342 3.527C15.43 2.542 14.156 2 12.75 2C11.336 2 10.058 2.54 9.14999 3.518C8.23199 4.508 7.78499 5.852 7.88999 7.304C8.09799 10.17 10.278 12.5 12.75 12.5C15.222 12.5 17.398 10.17 17.61 7.305C17.716 5.866 17.266 4.525 16.342 3.527Z" fill="#F5F5F5" fill-opacity="0.34"/>
</g>
<g id="Vector_2">
<path d="M21 23H4.49999C4.28407 23.0027 4.07027 22.9572 3.87412 22.8669C3.67797 22.7766 3.50439 22.6438 3.36599 22.478C3.2132 22.2893 3.10381 22.0693 3.04557 21.8335C2.98732 21.5978 2.98167 21.3522 3.02899 21.114C3.42499 18.919 4.65899 17.076 6.59999 15.781C8.32399 14.632 10.508 14 12.75 14C14.992 14 17.176 14.633 18.9 15.781C20.84 17.075 22.076 18.919 22.471 21.113C22.562 21.616 22.439 22.113 22.135 22.478C21.9965 22.6439 21.8228 22.7769 21.6265 22.8672C21.4301 22.9575 21.2161 23.0029 21 23Z" fill="#0F0114"/>
<path d="M21 23H4.49999C4.28407 23.0027 4.07027 22.9572 3.87412 22.8669C3.67797 22.7766 3.50439 22.6438 3.36599 22.478C3.2132 22.2893 3.10381 22.0693 3.04557 21.8335C2.98732 21.5978 2.98167 21.3522 3.02899 21.114C3.42499 18.919 4.65899 17.076 6.59999 15.781C8.32399 14.632 10.508 14 12.75 14C14.992 14 17.176 14.633 18.9 15.781C20.84 17.075 22.076 18.919 22.471 21.113C22.562 21.616 22.439 22.113 22.135 22.478C21.9965 22.6439 21.8228 22.7769 21.6265 22.8672C21.4301 22.9575 21.2161 23.0029 21 23Z" fill="#F5F5F5" fill-opacity="0.34"/>
</g>
</g>
</svg>
